<svg width="17" height="16" viewBox="0 0 17 16" fill="none" xmlns="http://www.w3.org/2000/svg">
<path d="M14 7V4" stroke="black" stroke-linecap="round" stroke-linejoin="round"/>
<path d="M15.5 5.5H12.5" stroke="black" stroke-linecap="round" stroke-linejoin="round"/>
<path d="M11 1.5V3.5" stroke="black" stroke-linecap="round" stroke-linejoin="round"/>
<path d="M12 2.5H10" stroke="black" stroke-linecap="round" stroke-linejoin="round"/>
<path d="M14.0437 9.53755C13.062 9.81283 12.0248 9.82185 11.0385 9.56369C10.0522 9.30553 9.15235 8.78949 8.43143 8.06857C7.71052 7.34765 7.19448 6.44783 6.93632 5.46152C6.67816 4.47522 6.68718 3.43797 6.96245 2.4563C5.99462 2.72568 5.11425 3.24394 4.40904 3.95944C3.70383 4.67495 3.1984 5.56274 2.94307 6.53438C2.68775 7.50602 2.69145 8.52759 2.95381 9.49736C3.21617 10.4671 3.72803 11.3512 4.43841 12.0616C5.14879 12.772 6.03289 13.2838 7.00265 13.5462C7.97241 13.8086 8.99399 13.8123 9.96563 13.5569C10.9373 13.3016 11.8251 12.7962 12.5406 12.091C13.2561 11.3858 13.7743 10.5054 14.0437 9.53755Z" stroke="black" stroke-linecap="round" stroke-linejoin="round"/>
</svg>
