<svg width="18" height="22" viewBox="0 0 18 22" fill="none" xmlns="http://www.w3.org/2000/svg">
<path d="M10 11.75C12.0711 11.75 13.75 10.0711 13.75 8C13.75 5.92893 12.0711 4.25 10 4.25C7.92893 4.25 6.25 5.92893 6.25 8C6.25 10.0711 7.92893 11.75 10 11.75Z" stroke="black" stroke-linecap="round" stroke-linejoin="round"/>
<path d="M10 2.25V1" stroke="black" stroke-linecap="round" stroke-linejoin="round"/>
<path d="M5.93118 3.9313L5.04993 3.05005" stroke="black" stroke-linecap="round" stroke-linejoin="round"/>
<path d="M4.25 8H3" stroke="black" stroke-linecap="round" stroke-linejoin="round"/>
<g filter="url(#filter0_d_1675_109)">
<path d="M5.93118 12.0688L5.04993 12.9501" stroke="black" stroke-linecap="round" stroke-linejoin="round"/>
</g>
<path d="M10 13.75V15" stroke="black" stroke-linecap="round" stroke-linejoin="round"/>
<path d="M14.0687 12.0688L14.95 12.9501" stroke="black" stroke-linecap="round" stroke-linejoin="round"/>
<path d="M15.75 8H17" stroke="black" stroke-linecap="round" stroke-linejoin="round"/>
<path d="M14.0687 3.9313L14.95 3.05005" stroke="black" stroke-linecap="round" stroke-linejoin="round"/>
<defs>
<filter id="filter0_d_1675_109" x="0.549927" y="11.5688" width="9.88123" height="9.88135" filterUnits="userSpaceOnUse" color-interpolation-filters="sRGB">
<feFlood flood-opacity="0" result="BackgroundImageFix"/>
<feColorMatrix in="SourceAlpha" type="matrix" values="0 0 0 0 0 0 0 0 0 0 0 0 0 0 0 0 0 0 127 0" result="hardAlpha"/>
<feOffset dy="4"/>
<feGaussianBlur stdDeviation="2"/>
<feComposite in2="hardAlpha" operator="out"/>
<feColorMatrix type="matrix" values="0 0 0 0 0 0 0 0 0 0 0 0 0 0 0 0 0 0 0.25 0"/>
<feBlend mode="normal" in2="BackgroundImageFix" result="effect1_dropShadow_1675_109"/>
<feBlend mode="normal" in="SourceGraphic" in2="effect1_dropShadow_1675_109" result="shape"/>
</filter>
</defs>
</svg>
